<svg width="461" height="113" viewBox="0 0 461 113" fill="none" xmlns="http://www.w3.org/2000/svg">
<path d="M326.5 56.5526L328.327 56.657C328.327 57.3182 328.884 58.3969 329.997 59.8933C331.146 61.3897 332.677 62.7469 334.591 63.9648C336.505 65.148 338.593 65.7396 340.855 65.7396C342.49 65.7396 344.126 65.3916 345.761 64.6956C347.397 63.9996 348.215 62.4859 348.215 60.1543C348.215 57.7184 347.362 55.7522 345.657 54.2558C343.952 52.7942 342.021 51.5241 339.863 50.4453L335.948 48.6183C333.651 47.4351 331.824 46.1824 330.467 44.86C329.11 43.5724 328.431 41.902 328.431 39.8489C328.431 38.2481 329.006 36.5777 330.154 34.8378C331.302 33.063 332.955 31.6014 335.113 30.453C337.305 29.3047 339.776 28.7305 342.525 28.7305C344.195 28.7305 346.979 28.9915 350.877 29.5135L352.6 38.3873H350.773C350.459 37.1693 349.729 36.0209 348.58 34.9422C347.467 33.8286 346.144 32.889 344.613 32.1234C343.117 31.3578 341.829 30.975 340.75 30.975C338.906 30.975 337.41 31.5492 336.261 32.6976C335.113 33.846 334.539 35.3076 334.539 37.0823C334.539 38.5091 334.956 39.6401 335.791 40.4753C336.627 41.3452 338.21 42.3544 340.542 43.5028L343.726 45.0166C346.614 46.3738 349.085 47.9571 351.138 49.7667C353.191 51.6111 354.218 54.1514 354.218 57.3878C354.218 58.6057 353.957 59.9107 353.435 61.3027C352.948 62.6599 352.199 63.6343 351.19 64.2258C348.302 66.0702 345.918 67.2708 344.039 67.8276C342.16 68.3496 340.246 68.6106 338.297 68.6106C337.601 68.6106 336.609 68.5236 335.322 68.3496C334.034 68.1756 333.129 68.0364 332.607 67.932C332.085 67.8276 331.181 67.584 329.893 67.2012C328.605 66.8184 327.77 66.5748 327.387 66.4704C327.666 65.0784 327.805 64.0866 327.805 63.4951C327.805 62.6251 327.648 61.4419 327.335 59.9455C327.057 58.4143 326.778 57.2834 326.5 56.5526Z" fill="white"></path>
<path d="M305.672 68.5075L305.881 66.8893C308.839 66.6109 310.509 66.0889 310.892 65.3233C311.066 65.0101 311.222 63.7748 311.362 61.6172C311.501 59.4248 311.605 56.8323 311.675 53.8395C311.779 50.812 311.831 49.1068 311.831 48.724C311.831 43.7825 311.744 40.6158 311.57 39.2238C311.431 37.8318 311.135 36.8748 310.683 36.3528C310.544 36.1788 309.674 36.0048 308.073 35.8309C306.472 35.6569 305.672 35.4307 305.672 35.1523C305.672 34.5955 305.985 34.2475 306.611 34.1083C310.753 32.8207 314.807 30.5413 318.774 27.2702C319.017 27.2702 319.348 27.3398 319.766 27.479C319.418 28.9058 319.122 30.9937 318.878 33.7429C318.635 36.492 318.426 39.3804 318.252 42.4079C318.113 45.4355 318.043 48.115 318.043 50.4466C318.043 52.1866 318.095 54.6921 318.2 57.9633C318.339 61.1996 318.565 63.392 318.878 64.5403C319.157 65.1667 319.505 65.5669 319.922 65.7409C320.34 65.9149 321.175 66.0541 322.428 66.1585C323.646 66.1933 324.864 66.2977 326.082 66.4717L326.708 67.9855L305.672 68.5075ZM313.554 6.07739C313.554 4.89421 313.954 3.91983 314.755 3.15424C315.555 2.38865 316.512 2.00586 317.625 2.00586C318.739 2.00586 319.679 2.40605 320.444 3.20644C321.21 4.00682 321.593 4.96381 321.593 6.07739C321.593 7.19097 321.21 8.14795 320.444 8.94834C319.713 9.74872 318.774 10.1489 317.625 10.1489C316.512 10.1489 315.555 9.74872 314.755 8.94834C313.954 8.14795 313.554 7.19097 313.554 6.07739Z" fill="white"></path>
<path d="M304.364 41.1545L278.264 46.792C278.438 50.0632 278.751 52.6035 279.204 54.4131C279.691 56.1879 280.63 57.9974 282.022 59.8418C284.702 63.3566 287.938 65.1139 291.731 65.1139C293.297 65.1139 294.968 64.8181 296.743 64.2265C298.517 63.6349 300.483 62.5736 302.641 61.0424L303.581 62.2952C297.526 66.6451 292.149 68.8201 287.451 68.8201C282.475 68.8201 278.595 66.9409 275.811 63.1826C273.027 59.4242 271.635 55.1091 271.635 50.2372C271.635 45.2609 272.696 41.1371 274.819 37.866C276.942 34.5601 279.325 32.1589 281.97 30.6625C284.615 29.1662 286.616 28.418 287.973 28.418C289.539 28.418 291.157 28.679 292.828 29.201C294.533 29.6881 296.186 30.6451 297.786 32.0719C299.422 33.4987 300.779 35.4474 301.858 37.9182C302.171 38.4402 302.467 38.7882 302.745 38.9622C303.024 39.1362 303.528 39.2232 304.259 39.2232L304.364 41.1545ZM278.368 44.7563L285.207 43.2947C285.485 43.1555 286.529 42.8771 288.338 42.4595C290.183 42.0419 291.418 41.7809 292.045 41.6765C293.854 41.2589 295.003 40.9631 295.49 40.7892C295.977 40.6152 296.221 40.3368 296.221 39.954C296.221 39.3972 295.803 38.4576 294.968 37.1352C294.133 35.778 292.932 34.5427 291.366 33.4291C289.835 32.3155 288.025 31.7587 285.937 31.7587C283.327 31.7587 281.466 33.1333 280.352 35.8824C279.273 38.6316 278.612 41.5895 278.368 44.7563Z" fill="white"></path>
<path d="M239.001 45.0178L232.999 36.4572C228.405 36.4572 224.594 36.231 221.567 35.7786L221.463 48.3064C221.463 50.9511 221.532 53.909 221.671 57.1802C221.845 60.4513 222.211 62.7655 222.767 64.1227C223.046 64.9579 223.516 65.5494 224.177 65.8974C224.873 66.2454 226.404 66.7326 228.77 67.359C229.536 67.533 229.919 67.8114 229.919 68.1942C229.919 68.9598 229.675 69.3426 229.188 69.3426C228.631 69.3426 227.17 69.1686 224.803 68.8206C221.811 68.5422 219.984 68.403 219.322 68.403C215.947 68.403 212.467 68.6466 208.883 69.1338C208.639 69.1338 208.343 69.1686 207.995 69.2382C207.299 69.2382 206.951 68.925 206.951 68.2986C206.951 67.9506 207.073 67.6896 207.317 67.5156C207.595 67.3416 208.187 67.1328 209.091 66.8892C210.657 66.4716 211.788 65.8452 212.484 65.0101C213.18 64.1401 213.685 62.4697 213.998 59.9989C214.311 57.4934 214.485 53.4915 214.52 47.9932V24.9212C214.59 19.2837 214.555 15.1425 214.416 12.4978C214.311 9.85303 214.033 7.92167 213.58 6.70369C213.128 5.45091 212.432 4.61573 211.492 4.19813C210.553 3.78054 209.074 3.44995 207.056 3.20635L207.264 1.48378C209.109 1.55338 211.458 1.58818 214.311 1.58818C215.146 1.58818 218.174 1.37938 223.394 0.961791C228.649 0.509399 231.972 0.283203 233.364 0.283203C237.018 0.283203 240.306 0.787794 243.23 1.79698C246.153 2.80616 248.589 4.14593 250.537 5.8163C252.521 7.48668 254.017 9.40064 255.027 11.5582C256.036 13.681 256.54 15.8733 256.54 18.1353C256.54 20.4668 256.018 22.7288 254.974 24.9212C253.93 27.1135 252.347 29.1145 250.224 30.9241C248.101 32.6988 245.37 34.2126 242.029 35.4654L244.378 39.0149C247.649 43.9564 250.363 47.9584 252.521 51.0207C254.679 54.0482 256.993 56.9714 259.463 59.7901C261.969 62.6089 264.509 64.9057 267.085 66.6804C269.694 68.4204 272.235 69.3948 274.706 69.6036C275.367 69.708 275.697 70.056 275.697 70.6476C275.697 70.9607 275.541 71.1869 275.228 71.3261C274.914 71.5001 274.166 71.5871 272.983 71.5871C269.607 71.5871 266.354 70.839 263.222 69.3426C260.09 67.881 257.114 65.8974 254.296 63.3919C251.477 60.8863 248.971 58.259 246.779 55.5098C244.587 52.7607 241.994 49.2633 239.001 45.0178ZM221.88 32.8032C224.212 33.36 227.03 33.6384 230.336 33.6384C232.007 33.6384 233.764 33.5166 235.608 33.273C237.488 33.0294 239.402 32.49 241.35 31.6548C243.334 30.8197 245.039 29.4103 246.466 27.4267C247.893 25.4432 248.606 22.781 248.606 19.4403C248.606 17.0739 247.98 14.6031 246.727 12.028C245.509 9.41804 243.612 7.19088 241.037 5.34651C238.462 3.46735 235.33 2.52776 231.641 2.52776C230.11 2.52776 228.37 2.73656 226.421 3.15415C224.507 3.53695 223.394 4.16333 223.081 5.03332C222.28 6.73849 221.88 15.9951 221.88 32.8032Z" fill="white"></path>
<path d="M165.342 68.5075L165.551 66.8893C168.509 66.6109 170.179 66.0889 170.562 65.3233C170.736 65.0101 170.892 63.7748 171.031 61.6172C171.171 59.4248 171.275 56.8323 171.345 53.8395C171.449 50.812 171.501 49.1068 171.501 48.724C171.501 43.7825 171.414 40.6158 171.24 39.2238C171.101 37.8318 170.805 36.8748 170.353 36.3528C170.214 36.1788 169.344 36.0048 167.743 35.8309C166.142 35.6569 165.342 35.4307 165.342 35.1523C165.342 34.5955 165.655 34.2475 166.281 34.1083C170.423 32.8207 174.477 30.5413 178.444 27.2702C178.687 27.2702 179.018 27.3398 179.436 27.479C179.088 28.9058 178.792 30.9937 178.548 33.7429C178.305 36.492 178.096 39.3804 177.922 42.4079C177.783 45.4355 177.713 48.115 177.713 50.4466C177.713 52.1866 177.765 54.6921 177.87 57.9633C178.009 61.1996 178.235 63.392 178.548 64.5403C178.827 65.1667 179.175 65.5669 179.592 65.7409C180.01 65.9149 180.845 66.0541 182.098 66.1585C183.316 66.1933 184.534 66.2977 185.752 66.4717L186.378 67.9855L165.342 68.5075ZM173.224 6.07739C173.224 4.89421 173.624 3.91983 174.424 3.15424C175.225 2.38865 176.182 2.00586 177.295 2.00586C178.409 2.00586 179.349 2.40605 180.114 3.20644C180.88 4.00682 181.263 4.96381 181.263 6.07739C181.263 7.19097 180.88 8.14795 180.114 8.94834C179.383 9.74872 178.444 10.1489 177.295 10.1489C176.182 10.1489 175.225 9.74872 174.424 8.94834C173.624 8.14795 173.224 7.19097 173.224 6.07739Z" fill="white"></path>
<path d="M135.217 68.4019L135.322 66.8881C137.061 66.5401 138.262 66.1921 138.923 65.8442C139.584 65.4962 140.159 64.6784 140.646 63.3908C141.133 62.1032 141.446 60.1719 141.585 57.5967C141.759 55.0215 141.846 51.0718 141.846 45.7475C141.846 41.5368 141.62 38.7354 141.168 37.3435C140.715 35.9515 139.584 35.2555 137.775 35.2555C136.696 35.2555 135.6 35.3947 134.486 35.6731L134.695 34.0027L148.162 26.1729C148.302 28.3304 148.371 31.2884 148.371 35.0467L153.957 31.8626C154.235 31.6886 154.479 31.532 154.687 31.3928C155.07 31.184 155.505 30.9404 155.992 30.662C156.48 30.3488 157.315 29.8442 158.498 29.1482C159.681 28.4174 160.621 27.8258 161.317 27.3734L161.734 27.5822C161.943 27.791 162.187 27.965 162.465 28.1042C163.509 28.5914 164.327 29.1482 164.918 29.7746C165.51 30.401 165.806 31.3058 165.806 32.4889C165.806 33.8461 165.249 34.9597 164.135 35.8297C163.022 36.6997 161.682 37.2217 160.116 37.3957C160.116 36.2125 159.838 35.3077 159.281 34.6813C158.724 34.0549 157.941 33.7417 156.932 33.7417C155.888 33.7417 154.653 34.1245 153.226 34.8901C151.799 35.6209 150.72 36.3169 149.989 36.9781C149.119 37.7436 148.597 38.3874 148.423 38.9094C148.284 39.3966 148.197 40.632 148.162 42.6156C147.954 48.4967 147.849 51.6112 147.849 51.9592C147.849 58.7451 148.197 62.9384 148.893 64.5392C149.206 65.096 149.554 65.444 149.937 65.5832C150.32 65.6876 150.981 65.7398 151.921 65.7398L153.278 65.6354L159.49 65.531L159.385 67.6711C159.211 67.6711 158.115 67.7059 156.097 67.7755C154.078 67.8451 152.721 67.8799 152.025 67.8799L135.217 68.4019Z" fill="white"></path>
<path d="M89.0195 36.6657V34.5256L100.608 28.1051L101.652 27.6875C102.139 27.6875 102.382 28.0007 102.382 28.6271L101.756 37.6053C101.339 44.7044 101.13 49.0891 101.13 50.7595C101.13 54.6918 101.652 57.963 102.696 60.5729C103.74 63.1481 106.176 64.4356 110.004 64.4356C111.222 64.4356 112.474 64.2443 113.762 63.8615C115.084 63.4439 116.598 62.8349 118.303 62.0345C120.043 61.1993 121.4 60.5381 122.375 60.0509C122.375 57.441 122.427 55.7358 122.531 54.9354L122.845 44.2346C122.949 40.9983 122.845 38.7189 122.531 37.3965C122.218 36.0394 121.609 35.1694 120.704 34.7866C119.834 34.4038 118.373 34.1776 116.32 34.108L116.215 32.1766L130.1 28.9403C129.926 32.0722 129.735 35.065 129.526 37.9185C129.352 40.7373 129.178 43.7648 129.004 47.0012C128.865 50.2375 128.795 52.6387 128.795 54.2046C128.795 59.2853 129.126 62.8349 129.787 64.8532C131.597 64.7836 133.545 64.366 135.633 63.6005V65.9494C131.701 67.0282 127.716 68.3158 123.68 69.8122C123.088 67.8634 122.618 65.3926 122.27 62.3999C113.744 66.7498 107.829 68.9248 104.523 68.9248C102.295 68.9248 100.068 67.8634 97.8412 65.7406C95.614 63.6179 94.6048 59.5115 94.8136 53.4216L95.2312 41.6769C95.3008 39.5889 95.2138 38.0055 94.9702 36.9267C94.7614 35.8132 94.1002 35.2564 92.9867 35.2564C92.3603 35.2564 91.0379 35.7262 89.0195 36.6657Z" fill="white"></path>
<path d="M65.004 37.5021L58.5835 40.373C58.3051 39.2595 58.1659 38.4417 58.1659 37.9197C58.1659 36.1449 59.2447 34.5093 61.4023 33.013C63.5946 31.4818 66.048 30.2464 68.7623 29.3068C71.5115 28.3673 73.4255 27.8975 74.5042 27.8975C75.4438 27.8975 76.6096 28.3151 78.0016 29.1502C79.3936 29.9854 80.5071 30.8206 81.3423 31.6558C82.0731 32.3518 82.6299 33.0478 83.0127 33.7438C83.4303 34.4049 83.7957 35.4663 84.1089 36.9279C84.4221 38.3895 84.5787 40.2512 84.5787 42.5132C84.5787 43.1744 84.4917 45.5059 84.3177 49.5079L84.1089 53.4228C83.9697 55.302 83.9001 56.7983 83.9001 57.9119C83.9001 59.3387 84.0915 60.8699 84.4743 62.5054C84.8223 64.1758 85.6052 65.011 86.8232 65.011C88.1804 65.011 89.99 64.5064 92.2519 63.4972V65.6374L84.5787 68.7171C83.0475 69.2391 82.1775 69.5001 81.9687 69.5001C81.1683 69.5001 80.3679 68.9781 79.5675 67.9342C78.802 66.8554 78.1756 65.5852 77.6884 64.1236C71.2505 67.708 66.309 69.5001 62.8638 69.5001C60.7411 69.5001 59.1403 68.8911 58.0615 67.6732C56.9827 66.4204 56.4434 64.5586 56.4434 62.0879C56.4434 59.7215 56.7218 57.9641 57.2785 56.8157C57.8701 55.6674 58.8097 54.7626 60.0973 54.1014C62.7072 52.779 65.4738 51.8046 68.3969 51.1782C71.3201 50.5171 74.3824 49.9603 77.584 49.5079L77.845 43.0874V41.3648C77.845 38.4069 76.9924 36.0753 75.2872 34.3701C73.6169 32.6302 71.6507 31.7602 69.3887 31.7602C68.3099 31.7602 67.2138 32.0734 66.1002 32.6998C65.0214 33.2914 64.482 34.1439 64.482 35.2575C64.482 35.8143 64.656 36.5625 65.004 37.5021ZM77.3752 62.1923C77.2708 61.0439 77.3752 57.7727 77.6884 52.3788C73.0949 52.0656 69.4061 52.6224 66.6222 54.0492C63.8382 55.476 62.4463 57.2681 62.4463 59.4257C62.4463 60.9917 62.8638 62.4706 63.699 63.8626C64.569 65.2546 65.7522 65.9506 67.2486 65.9506C68.9189 65.9506 72.2945 64.6978 77.3752 62.1923Z" fill="white"></path>
<path d="M1.2093 2.99787V1.1709C5.59402 1.2057 8.46497 1.2405 9.82215 1.2753C11.1793 1.3101 12.3103 1.3449 13.2151 1.37969C19.0614 1.37969 22.9067 1.3101 24.7511 1.1709L24.6467 3.20666C22.2455 3.41546 20.4534 3.71125 19.2702 4.09405C18.087 4.44204 17.2344 5.20763 16.7124 6.39081C16.3992 7.15639 16.173 9.07036 16.0338 12.1327C15.8946 15.195 15.7728 19.1274 15.6684 23.9297C15.5292 29.3236 15.4249 34.2129 15.3553 38.5976C15.2857 42.9824 15.2509 47.3323 15.2509 51.6474C15.2509 55.5797 15.3553 58.4855 15.564 60.3646C15.7728 62.2438 16.1208 63.427 16.608 63.9142C17.1996 64.3666 18.174 64.6972 19.5312 64.906C20.9232 65.1148 23.8637 65.2192 28.3528 65.2192C33.2943 65.2192 37.4181 64.819 40.724 64.0186C44.0647 63.2182 46.5703 62.3656 48.2407 61.4608C50.4678 60.1037 51.999 57.7895 52.8342 54.5184L54.5568 54.7271C54.348 56.1539 53.8782 58.2941 53.1474 61.1476C52.4166 64.0012 51.564 66.5937 50.5896 68.9253C47.5969 68.5773 45.2131 68.4033 43.4384 68.4033C42.3596 68.3685 41.3504 68.3337 40.4108 68.2989C39.506 68.2989 38.4446 68.2989 37.2267 68.2989H0.582914L0.478516 66.6807C2.53168 66.2631 4.02805 65.8108 4.96764 65.3236C5.90722 64.8364 6.60321 64.0012 7.0556 62.818C7.54279 61.6 7.83858 59.7905 7.94298 57.3893C8.08218 54.9881 8.15178 51.5256 8.15178 47.0017L8.25618 24.0341C8.32578 18.849 8.32578 14.9167 8.25618 12.2371C8.18658 9.55755 7.94298 7.57398 7.52539 6.28641C7.1078 4.96403 6.44661 4.11145 5.54183 3.72865C4.63704 3.31106 3.19287 3.06746 1.2093 2.99787Z" fill="white"></path>
<path d="M338.424 112.842L348.045 92.0547H349.025L358.646 112.842H357.548L348.312 92.7377H348.758L339.523 112.842H338.424ZM341.75 106.754L342.136 105.893H354.845L355.231 106.754H341.75Z" fill="white"></path>
<path d="M314.994 112.842V92.0547H316.004V112.842H314.994Z" fill="white"></path>
<path d="M277.879 112.842V92.0547H291.509V92.9752H278.889V112.842H277.879ZM278.71 103.369V102.478H290.173V103.369H278.71Z" fill="white"></path>
<path d="M235.193 112.842L244.815 92.0547H245.795L255.416 112.842H254.317L245.082 92.7377H245.527L236.292 112.842H235.193ZM238.519 106.754L238.905 105.893H251.615L252.001 106.754H238.519Z" fill="white"></path>
<path d="M199.066 112.842V92.0547H206.282C208.876 92.0547 210.895 92.6585 212.34 93.8661C213.805 95.0737 214.538 96.7664 214.538 98.944C214.538 100.389 214.211 101.627 213.558 102.656C212.905 103.685 211.954 104.477 210.707 105.032C209.48 105.586 208.005 105.863 206.282 105.863H199.631L200.076 105.388V112.842H199.066ZM213.677 112.842L208.272 105.299H209.43L214.864 112.842H213.677ZM200.076 105.388L199.631 104.943H206.342C208.678 104.943 210.46 104.418 211.687 103.369C212.934 102.319 213.558 100.845 213.558 98.944C213.558 97.0435 212.934 95.5786 211.687 94.5491C210.46 93.4999 208.678 92.9752 206.342 92.9752H199.631L200.076 92.5001V105.388Z" fill="white"></path>
<path d="M166.354 112.96C164.81 112.96 163.375 112.703 162.048 112.188C160.742 111.653 159.593 110.911 158.604 109.961C157.633 109.01 156.881 107.902 156.347 106.635C155.812 105.348 155.545 103.952 155.545 102.448C155.545 100.943 155.812 99.5574 156.347 98.2904C156.881 97.0036 157.633 95.885 158.604 94.9348C159.593 93.9845 160.742 93.252 162.048 92.7373C163.375 92.2028 164.81 91.9355 166.354 91.9355C167.799 91.9355 169.155 92.1632 170.422 92.6185C171.689 93.0739 172.768 93.7569 173.659 94.6675L173.065 95.3505C172.115 94.4399 171.086 93.7965 169.977 93.4203C168.868 93.0442 167.671 92.8561 166.384 92.8561C164.978 92.8561 163.672 93.1036 162.464 93.5985C161.276 94.0736 160.237 94.7467 159.346 95.6178C158.455 96.4889 157.762 97.5084 157.267 98.6764C156.792 99.8246 156.555 101.082 156.555 102.448C156.555 103.814 156.792 105.081 157.267 106.249C157.762 107.397 158.455 108.407 159.346 109.278C160.237 110.149 161.276 110.832 162.464 111.327C163.672 111.802 164.978 112.039 166.384 112.039C167.651 112.039 168.848 111.851 169.977 111.475C171.125 111.079 172.145 110.436 173.036 109.545L173.629 110.287C172.719 111.178 171.63 111.851 170.363 112.307C169.096 112.742 167.76 112.96 166.354 112.96ZM173.629 110.287L172.679 110.169V102.596H173.629V110.287Z" fill="white"></path>
<path d="M123.009 112.96C121.485 112.96 120.069 112.703 118.763 112.188C117.456 111.653 116.318 110.911 115.348 109.961C114.378 109.01 113.625 107.902 113.091 106.635C112.556 105.348 112.289 103.952 112.289 102.448C112.289 100.943 112.556 99.5574 113.091 98.2904C113.625 97.0036 114.378 95.885 115.348 94.9348C116.318 93.9845 117.456 93.252 118.763 92.7373C120.069 92.2028 121.485 91.9355 123.009 91.9355C124.553 91.9355 125.979 92.2028 127.285 92.7373C128.592 93.252 129.72 93.9845 130.671 94.9348C131.641 95.885 132.393 97.0036 132.927 98.2904C133.482 99.5574 133.759 100.943 133.759 102.448C133.759 103.952 133.482 105.348 132.927 106.635C132.393 107.902 131.641 109.01 130.671 109.961C129.72 110.911 128.592 111.653 127.285 112.188C125.979 112.703 124.553 112.96 123.009 112.96ZM123.009 112.039C124.395 112.039 125.682 111.802 126.87 111.327C128.057 110.852 129.087 110.178 129.958 109.307C130.849 108.436 131.532 107.427 132.007 106.278C132.502 105.11 132.749 103.834 132.749 102.448C132.749 101.062 132.502 99.795 132.007 98.6467C131.532 97.4787 130.849 96.4592 129.958 95.5881C129.087 94.717 128.057 94.0439 126.87 93.5688C125.682 93.0937 124.395 92.8561 123.009 92.8561C121.643 92.8561 120.366 93.0937 119.178 93.5688C117.991 94.0439 116.951 94.717 116.06 95.5881C115.189 96.4592 114.506 97.4787 114.011 98.6467C113.536 99.795 113.299 101.062 113.299 102.448C113.299 103.834 113.536 105.11 114.011 106.278C114.506 107.427 115.189 108.436 116.06 109.307C116.951 110.178 117.991 110.852 119.178 111.327C120.366 111.802 121.643 112.039 123.009 112.039Z" fill="white"></path>
<path d="M83.7528 112.842V92.9752H76.1211V92.0547H92.3645V92.9752H84.7328V112.842H83.7528Z" fill="white"></path>
<path d="M45.4369 112.96C43.9125 112.96 42.497 112.703 41.1904 112.188C39.8838 111.653 38.7455 110.911 37.7754 109.961C36.8054 109.01 36.0531 107.902 35.5186 106.635C34.9841 105.348 34.7168 103.952 34.7168 102.448C34.7168 100.943 34.9841 99.5574 35.5186 98.2904C36.0531 97.0036 36.8054 95.885 37.7754 94.9348C38.7455 93.9845 39.8838 93.252 41.1904 92.7373C42.497 92.2028 43.9125 91.9355 45.4369 91.9355C46.981 91.9355 48.4064 92.2028 49.713 92.7373C51.0196 93.252 52.148 93.9845 53.0983 94.9348C54.0684 95.885 54.8206 97.0036 55.3552 98.2904C55.9095 99.5574 56.1866 100.943 56.1866 102.448C56.1866 103.952 55.9095 105.348 55.3552 106.635C54.8206 107.902 54.0684 109.01 53.0983 109.961C52.148 110.911 51.0196 111.653 49.713 112.188C48.4064 112.703 46.981 112.96 45.4369 112.96ZM45.4369 112.039C46.8227 112.039 48.1095 111.802 49.2973 111.327C50.4851 110.852 51.5145 110.178 52.3856 109.307C53.2765 108.436 53.9595 107.427 54.4346 106.278C54.9295 105.11 55.177 103.834 55.177 102.448C55.177 101.062 54.9295 99.795 54.4346 98.6467C53.9595 97.4787 53.2765 96.4592 52.3856 95.5881C51.5145 94.717 50.4851 94.0439 49.2973 93.5688C48.1095 93.0937 46.8227 92.8561 45.4369 92.8561C44.0709 92.8561 42.794 93.0937 41.6061 93.5688C40.4183 94.0439 39.379 94.717 38.4881 95.5881C37.6171 96.4592 36.9341 97.4787 36.4391 98.6467C35.964 99.795 35.7264 101.062 35.7264 102.448C35.7264 103.834 35.964 105.11 36.4391 106.278C36.9341 107.427 37.6171 108.436 38.4881 109.307C39.379 110.178 40.4183 110.852 41.6061 111.327C42.794 111.802 44.0709 112.039 45.4369 112.039Z" fill="white"></path>
<path d="M0 112.842V92.0547H13.6302V92.9752H1.00965V112.842H0ZM0.831473 103.369V102.478H12.2939V103.369H0.831473Z" fill="white"></path>
<mask id="mask0_2411_18" style="mask-type:alpha" maskUnits="userSpaceOnUse" x="355" y="0" width="106" height="113">
<path d="M355.604 112.662C355.504 112.4 355.522 110.87 355.628 110.704C355.698 110.593 365.525 110.556 402.116 110.53L448.514 110.497L449.603 110.198C452.163 109.497 453.99 108.422 455.686 106.621C456.198 106.076 457.016 104.767 457.541 103.653C458.206 102.239 458.494 101.004 458.62 99.0295C458.767 96.7035 458.764 29.3497 458.616 27.7881C458.203 23.4341 455.979 20.1999 451.996 18.1626C449.538 16.9054 448.607 16.8299 435.957 16.8618C427.674 16.8828 426.993 16.8698 426.197 16.6756C424.419 16.2421 422.503 15.0345 421.601 13.7794C421.022 12.9735 420.72 12.3431 420.032 10.5023C419.703 9.62327 419.342 8.69862 419.23 8.44748C419.118 8.19633 418.798 7.42579 418.519 6.73515C417.904 5.21465 417.371 4.35582 416.643 3.71346C415.996 3.14329 415.558 2.90657 414.488 2.54807L413.697 2.2831H399.427C384.016 2.2831 384.717 2.25659 383.446 2.88798C382.717 3.25045 381.45 4.5153 381.078 5.25183C380.92 5.56538 380.295 7.08047 379.69 8.61871C379.084 10.1569 378.449 11.7225 378.277 12.0976C377.952 12.8106 376.869 14.3333 376.408 14.7263C375.798 15.2462 374.933 15.8261 374.299 16.1406C372.863 16.8531 373.002 16.8435 363.981 16.8603C359.461 16.8688 355.728 16.8406 355.685 16.7977C355.642 16.7547 355.59 16.3323 355.57 15.8589C355.509 14.402 354.544 14.5548 363.804 14.5548H371.837L372.649 14.2801C374.036 13.811 374.961 13.0831 375.748 11.8418C375.93 11.5541 376.422 10.4415 376.839 9.36936C379.039 3.72572 379.399 3.04124 380.758 1.91627C381.617 1.20604 382.999 0.490412 384.074 0.200354C384.763 0.0142073 385.856 0 399.485 0C413.485 0 414.19 0.00978433 414.953 0.214737C415.906 0.471037 417.042 1.02266 417.815 1.60496C419.073 2.55317 419.848 3.67277 420.616 5.65068C420.872 6.30992 421.201 7.13184 421.347 7.47716C421.493 7.82248 421.908 8.84987 422.268 9.76026C423.001 11.6108 423.072 11.7452 423.763 12.5735C424.387 13.3216 425.293 13.9222 426.342 14.2834L427.167 14.5677L437.726 14.602C449.093 14.639 449.026 14.6357 451.055 15.254C452.162 15.5912 454.131 16.6011 455.222 17.391C456.228 18.1193 457.736 19.6127 458.414 20.5523C458.985 21.3438 459.904 23.135 460.197 24.0296C460.331 24.4377 460.556 25.2597 460.696 25.8561L460.951 26.9406L460.989 63.1278C461.016 89.6945 460.992 99.6032 460.896 100.399C460.321 105.199 457.475 109.262 453.191 111.399C452.628 111.68 451.705 112.044 451.14 112.208C448.807 112.884 452.045 112.842 401.781 112.842C359.842 112.842 355.667 112.826 355.604 112.662ZM396.402 99.4895C394.481 99.3229 391.695 98.8109 389.781 98.2729C386.996 97.4898 383.635 96.0757 381.562 94.8149C381.154 94.5666 380.55 94.2019 380.219 94.0043C378.895 93.2135 376.312 91.1548 374.812 89.6947C371.056 86.0391 368.22 81.8214 366.442 77.2437C363.293 69.1407 363.059 60.4096 365.772 52.3447C367.52 47.1467 370.375 42.5313 374.252 38.6356C375.918 36.9615 376.826 36.1741 378.48 34.9706C381.069 33.086 384.225 31.3641 386.728 30.4694C388.805 29.7268 389.259 29.582 390.638 29.2213C393.877 28.3735 396.623 28.0813 400.512 28.1706C403.173 28.2317 404.567 28.3877 406.879 28.883C410.615 29.6834 414.761 31.3218 418.092 33.3145C423.714 36.6778 428.738 42.333 431.677 48.6045C433.229 51.9164 434.375 55.939 434.887 59.8743C435.078 61.3377 435.081 66.5867 434.892 67.9793C433.948 74.9415 431.717 80.4834 427.749 85.7305C424.535 89.9807 419.846 93.7823 414.895 96.1517C411.516 97.7691 408.565 98.6445 404.222 99.3179C402.884 99.5253 398.041 99.6316 396.402 99.4895ZM402.567 97.1417C403.54 97.0456 404.901 96.8628 405.592 96.7355C414.974 95.0057 423.131 89.3274 428.068 81.088C430.257 77.4352 431.823 72.9472 432.464 68.493C433.043 64.4703 432.779 59.878 431.72 55.5517C431.136 53.1668 430.5 51.4618 429.225 48.8584C424.695 39.6092 416.125 33.055 405.935 31.0455C402.26 30.3207 397.824 30.2413 394.119 30.8338C390.04 31.4863 385.746 33.0905 382.058 35.3406C377.704 37.9963 373.709 42.0671 370.865 46.7465C368.623 50.4364 367.05 55.0254 366.429 59.6937C366.208 61.3505 366.209 66.2039 366.43 67.8652C366.958 71.8365 368.032 75.5264 369.552 78.5958C371.64 82.8104 374.284 86.2547 377.738 89.2591C378.668 90.0681 381.894 92.4085 382.079 92.4085C382.121 92.4085 382.291 92.5056 382.458 92.6242C383.044 93.0415 385.629 94.3375 386.87 94.8368C391.911 96.8641 397.326 97.6593 402.567 97.1417ZM421.959 54.6796C421.658 54.5162 421.33 53.9325 421.061 53.0821C420.27 50.5838 417.56 46.7036 415.185 44.669C413.053 42.8421 410.189 41.2423 407.587 40.4247C406.863 40.1974 406.196 40.0112 406.103 40.0109C405.715 40.0099 405.204 39.5616 405.066 39.1021C404.899 38.5454 405.06 38.1449 405.554 37.8897C406 37.6589 406.295 37.6847 407.713 38.0784C409.871 38.6774 412.519 39.8999 414.382 41.1569C417.595 43.3254 420.529 46.6161 422.183 49.9064C422.947 51.425 423.685 53.2446 423.685 53.6066C423.685 54.1198 423.397 54.5821 422.987 54.725C422.52 54.8878 422.326 54.8793 421.959 54.6796ZM442.939 38.2366C441.934 38.0367 441.297 37.7232 440.57 37.0698C439.823 36.3981 439.515 35.904 439.203 34.8757C438.638 33.0142 439.19 30.9187 440.58 29.6541C441.517 28.8017 443.078 28.2928 444.347 28.426C446.275 28.6281 447.835 29.9255 448.513 31.8922C448.711 32.4645 448.738 33.994 448.564 34.7471C448.131 36.6262 446.585 38.0108 444.598 38.2981C444.178 38.3589 443.808 38.4049 443.777 38.4002C443.745 38.3955 443.368 38.3219 442.939 38.2366ZM445.303 35.6357C446.033 35.0784 446.337 34.4976 446.384 33.5667C446.43 32.658 446.287 32.1915 445.777 31.5874C444.891 30.5368 443.401 30.3944 442.278 31.2531C441.606 31.7662 441.273 32.4649 441.269 33.3664C441.265 34.1938 441.495 34.7371 442.083 35.2891C442.741 35.9068 443.059 36.022 444.014 35.9888C444.762 35.9629 444.936 35.9152 445.303 35.6357ZM428.472 13.0661C428.38 13.0087 428.496 11.4928 428.66 10.6164C429.054 8.51389 430.301 7.04097 432.247 6.3782C432.828 6.18042 433.303 6.16437 438.583 6.16437C443.892 6.16437 444.334 6.1795 444.918 6.38108C446.628 6.97116 447.832 8.26839 448.356 10.085C448.652 11.1108 448.832 12.8374 448.663 13.0401C448.57 13.1522 448.259 13.1843 447.498 13.1604L446.459 13.1278L446.371 12.2146C446.19 10.3398 445.641 9.33482 444.488 8.76866L443.834 8.44748H438.526C433.3 8.44748 433.21 8.45133 432.756 8.6947C432.218 8.98277 431.38 9.85331 431.209 10.301C431.065 10.6795 430.768 12.3238 430.765 12.7568C430.763 13.0481 430.728 13.0715 430.278 13.0809C430.011 13.0864 429.518 13.0995 429.183 13.1099C428.848 13.1203 428.528 13.1006 428.472 13.0661Z" fill="#C8A84B"></path>
</mask>
<g mask="url(#mask0_2411_18)">
<rect x="355.514" width="106.904" height="112.843" fill="url(#paint0_linear_2411_18)"></rect>
</g>
<defs>
<linearGradient id="paint0_linear_2411_18" x1="397.087" y1="56.4214" x2="355.514" y2="56.4214" gradientUnits="userSpaceOnUse">
<stop stop-color="#C8A84B"></stop>
<stop offset="1" stop-color="#625225" stop-opacity="0"></stop>
</linearGradient>
</defs>
</svg>