<svg width="291" height="186" viewBox="0 0 291 186" fill="none" xmlns="http://www.w3.org/2000/svg">
<mask id="mask0_2411_3" style="mask-type:alpha" maskUnits="userSpaceOnUse" x="157" y="42" width="134" height="144">
<path d="M157.123 185.77C156.995 185.438 157.019 183.496 157.152 183.285C157.242 183.145 169.712 183.098 216.147 183.065L275.028 183.022L276.41 182.644C279.658 181.754 281.978 180.39 284.129 178.104C284.779 177.412 285.818 175.751 286.483 174.337C287.327 172.543 287.693 170.975 287.852 168.47C288.04 165.518 288.036 80.0445 287.848 78.0627C287.324 72.5374 284.501 68.4331 279.447 65.8477C276.327 64.2523 275.145 64.1564 259.093 64.197C248.581 64.2235 247.718 64.2071 246.707 63.9606C244.451 63.4106 242.019 61.878 240.875 60.2853C240.14 59.2625 239.757 58.4626 238.883 56.1265C238.465 55.011 238.008 53.8376 237.865 53.5189C237.723 53.2002 237.317 52.2224 236.963 51.3459C236.184 49.4164 235.507 48.3265 234.582 47.5113C233.761 46.7878 233.206 46.4874 231.848 46.0324L230.844 45.6961H212.736C193.179 45.6961 194.067 45.6625 192.455 46.4638C191.53 46.9237 189.922 48.5289 189.45 49.4636C189.249 49.8614 188.456 51.7841 187.688 53.7362C186.919 55.6883 186.113 57.675 185.896 58.1511C185.483 59.0559 184.109 60.9882 183.523 61.4869C182.749 62.1467 181.652 62.8826 180.847 63.2817C179.025 64.1859 179.201 64.1737 167.753 64.1951C162.017 64.2058 157.28 64.17 157.225 64.1155C157.171 64.061 157.105 63.525 157.08 62.9242C157.001 61.0754 155.777 61.2693 167.529 61.2693H177.723L178.753 60.9207C180.513 60.3254 181.687 59.4017 182.686 57.8264C182.917 57.4613 183.54 56.0494 184.071 54.6888C186.862 47.5269 187.319 46.6582 189.044 45.2306C190.133 44.3293 191.888 43.4212 193.251 43.0531C194.126 42.8169 195.513 42.7988 212.808 42.7988C230.575 42.7988 231.47 42.8112 232.437 43.0713C233.648 43.3966 235.089 44.0966 236.07 44.8356C237.667 46.0389 238.65 47.4597 239.624 49.9697C239.949 50.8063 240.366 51.8493 240.552 52.2876C240.737 52.7258 241.264 54.0296 241.721 55.1849C242.651 57.5333 242.741 57.7038 243.618 58.7549C244.411 59.7043 245.56 60.4666 246.891 60.9249L247.938 61.2857L261.338 61.3292C275.763 61.3761 275.678 61.372 278.253 62.1566C279.657 62.5846 282.156 63.8661 283.541 64.8685C284.818 65.7928 286.731 67.688 287.592 68.8803C288.316 69.8848 289.482 72.1579 289.854 73.2931C290.024 73.811 290.309 74.8541 290.487 75.611L290.811 76.9872L290.859 122.91C290.894 156.624 290.862 169.198 290.741 170.209C290.011 176.299 286.399 181.455 280.963 184.167C280.249 184.524 279.077 184.986 278.36 185.194C275.399 186.052 279.509 185.999 215.722 185.999C162.501 185.999 157.203 185.978 157.123 185.77ZM208.897 169.054C206.459 168.842 202.923 168.193 200.494 167.51C196.96 166.516 192.694 164.722 190.064 163.122C189.546 162.807 188.779 162.344 188.359 162.093C186.679 161.089 183.401 158.477 181.497 156.624C176.731 151.985 173.133 146.633 170.876 140.823C166.881 130.54 166.582 119.46 170.026 109.226C172.245 102.629 175.868 96.7723 180.787 91.8285C182.901 89.704 184.054 88.7048 186.153 87.1775C189.439 84.7859 193.443 82.6008 196.619 81.4654C199.256 80.523 199.832 80.3392 201.581 79.8814C205.692 78.8056 209.177 78.4348 214.112 78.5482C217.489 78.6257 219.258 78.8237 222.192 79.4522C226.933 80.4679 232.194 82.5471 236.421 85.0759C243.555 89.344 249.932 96.5207 253.662 104.479C255.631 108.682 257.085 113.787 257.735 118.781C257.977 120.638 257.981 127.299 257.741 129.067C256.543 137.902 253.713 144.935 248.677 151.593C244.597 156.987 238.647 161.811 232.365 164.818C228.077 166.871 224.332 167.981 218.82 168.836C217.123 169.099 210.976 169.234 208.897 169.054ZM216.719 166.074C217.954 165.952 219.682 165.72 220.558 165.559C232.465 163.364 242.816 156.158 249.081 145.702C251.859 141.066 253.847 135.371 254.66 129.718C255.395 124.614 255.06 118.786 253.715 113.296C252.974 110.269 252.168 108.105 250.55 104.802C244.801 93.064 233.926 84.7465 220.995 82.1965C216.33 81.2767 210.701 81.1759 205.999 81.9279C200.822 82.7558 195.374 84.7917 190.693 87.647C185.168 91.0173 180.099 96.1832 176.49 102.121C173.644 106.804 171.648 112.628 170.859 118.552C170.58 120.654 170.58 126.813 170.861 128.922C171.532 133.961 172.894 138.644 174.823 142.539C177.473 147.888 180.828 152.258 185.211 156.071C186.391 157.098 190.485 160.068 190.72 160.068C190.773 160.068 190.989 160.191 191.201 160.342C191.945 160.871 195.225 162.516 196.8 163.149C203.197 165.722 210.069 166.731 216.719 166.074ZM241.329 112.189C240.947 111.981 240.531 111.241 240.189 110.162C239.185 106.991 235.746 102.067 232.732 99.4851C230.026 97.1667 226.392 95.1365 223.09 94.099C222.172 93.8104 221.325 93.5741 221.207 93.5738C220.715 93.5725 220.066 93.0037 219.891 92.4205C219.679 91.714 219.884 91.2058 220.51 90.882C221.076 90.5891 221.451 90.6218 223.251 91.1214C225.989 91.8816 229.35 93.4329 231.713 95.0281C235.79 97.7801 239.514 101.956 241.613 106.131C242.582 108.059 243.52 110.368 243.52 110.827C243.52 111.478 243.153 112.065 242.633 112.246C242.04 112.453 241.795 112.442 241.329 112.189ZM267.953 91.3222C266.677 91.0685 265.87 90.6707 264.947 89.8415C263.999 88.9891 263.608 88.362 263.212 87.0571C262.495 84.6948 263.196 82.0355 264.96 80.4307C266.149 79.349 268.13 78.7033 269.74 78.8722C272.187 79.1288 274.166 80.7752 275.027 83.2709C275.277 83.9972 275.312 85.9382 275.092 86.8939C274.542 89.2786 272.58 91.0356 270.058 91.4003C269.525 91.4774 269.056 91.5357 269.016 91.5298C268.976 91.5239 268.498 91.4304 267.953 91.3222ZM270.953 88.0215C271.88 87.3144 272.265 86.5773 272.325 85.396C272.383 84.2428 272.201 83.6507 271.555 82.8842C270.431 81.5509 268.539 81.3702 267.114 82.4599C266.262 83.111 265.838 83.9977 265.833 85.1417C265.828 86.1918 266.12 86.8812 266.867 87.5818C267.702 88.3656 268.105 88.5118 269.317 88.4697C270.267 88.4368 270.487 88.3763 270.953 88.0215ZM249.594 59.38C249.477 59.3073 249.624 57.3835 249.833 56.2714C250.333 53.6032 251.915 51.734 254.385 50.8929C255.122 50.642 255.725 50.6216 262.425 50.6216C269.162 50.6216 269.724 50.6408 270.465 50.8966C272.634 51.6454 274.162 53.2917 274.828 55.597C275.203 56.8987 275.431 59.0899 275.218 59.3471C275.1 59.4893 274.704 59.5301 273.739 59.4998L272.421 59.4584L272.309 58.2995C272.079 55.9203 271.382 54.645 269.919 53.9265L269.089 53.5189H262.352C255.721 53.5189 255.607 53.5238 255.03 53.8327C254.347 54.1982 253.284 55.303 253.068 55.8711C252.885 56.3514 252.508 58.4381 252.504 58.9876C252.502 59.3573 252.457 59.3869 251.886 59.3988C251.547 59.4059 250.922 59.4224 250.497 59.4357C250.071 59.4489 249.665 59.4238 249.594 59.38Z" fill="#C8A84B"></path>
</mask>
<g mask="url(#mask0_2411_3)">
<rect x="157.008" y="42.7988" width="135.664" height="143.201" fill="url(#paint0_linear_2411_3)"></rect>
</g>
<path d="M143.819 132.611L131.767 115.424C122.545 115.424 114.894 114.97 108.816 114.062L108.607 139.213C108.607 144.523 108.746 150.462 109.026 157.029C109.375 163.596 110.109 168.242 111.227 170.967C111.785 172.644 112.729 173.832 114.056 174.53C115.453 175.229 118.527 176.207 123.278 177.465C124.815 177.814 125.584 178.373 125.584 179.141C125.584 180.678 125.095 181.447 124.117 181.447C122.999 181.447 120.064 181.098 115.314 180.399C109.305 179.84 105.637 179.561 104.31 179.561C97.5329 179.561 90.5463 180.05 83.3502 181.028C82.8611 181.028 82.2673 181.098 81.5686 181.237C80.1713 181.237 79.4727 180.608 79.4727 179.351C79.4727 178.652 79.7172 178.128 80.2062 177.779C80.7652 177.43 81.9529 177.01 83.7694 176.521C86.9133 175.683 89.184 174.425 90.5813 172.749C91.9786 171.002 92.9916 167.648 93.6204 162.688C94.2492 157.658 94.5985 149.623 94.6684 138.584V92.2636C94.8081 80.9454 94.7383 72.6314 94.4588 67.3216C94.2492 62.0118 93.6903 58.1343 92.782 55.689C91.8738 53.1739 90.4765 51.4971 88.5901 50.6587C86.7037 49.8203 83.7344 49.1566 79.6823 48.6675L80.1014 45.2092C83.8043 45.3489 88.5202 45.4188 94.2492 45.4188C95.926 45.4188 102.004 44.9996 112.484 44.1612C123.034 43.253 129.706 42.7988 132.501 42.7988C139.836 42.7988 146.439 43.8119 152.307 45.838C158.176 47.8641 163.067 50.5539 166.979 53.9074C170.961 57.261 173.966 61.1036 175.992 65.4352C178.018 69.697 179.031 74.0986 179.031 78.6398C179.031 83.3208 177.983 87.8621 175.887 92.2636C173.791 96.6651 170.612 100.682 166.35 104.315C162.089 107.879 156.604 110.918 149.897 113.433L154.613 120.559C161.18 130.48 166.63 138.515 170.961 144.663C175.293 150.741 179.939 156.61 184.9 162.269C189.93 167.928 195.03 172.539 200.2 176.102C205.44 179.595 210.54 181.552 215.501 181.971C216.828 182.18 217.492 182.879 217.492 184.067C217.492 184.696 217.178 185.15 216.549 185.429C215.92 185.779 214.418 185.953 212.042 185.953C205.265 185.953 198.733 184.451 192.445 181.447C186.157 178.513 180.184 174.53 174.525 169.5C168.866 164.47 163.835 159.195 159.434 153.675C155.032 148.156 149.827 141.134 143.819 132.611ZM109.445 108.088C114.126 109.206 119.785 109.765 126.422 109.765C129.776 109.765 133.304 109.52 137.007 109.031C140.78 108.542 144.622 107.459 148.535 105.783C152.517 104.106 155.94 101.276 158.805 97.2939C161.669 93.3116 163.102 87.9669 163.102 81.2598C163.102 76.5089 161.844 71.5485 159.329 66.3784C156.884 61.1385 153.076 56.6671 147.906 52.9643C142.736 49.1915 136.448 47.3052 129.042 47.3052C125.968 47.3052 122.475 47.7243 118.562 48.5627C114.72 49.3313 112.484 50.5888 111.855 52.3355C110.248 55.7589 109.445 74.3431 109.445 108.088Z" fill="white"></path>
<path d="M1.46717 3.66794V0C10.2702 0.0698655 16.0341 0.139731 18.7589 0.209596C21.4836 0.279462 23.7543 0.349327 25.5708 0.419193C37.3082 0.419193 45.0283 0.279462 48.7312 0L48.5216 4.08713C43.7009 4.50632 40.1028 5.10018 37.7274 5.8687C35.3519 6.56735 33.6402 8.10439 32.5922 10.4798C31.9635 12.0169 31.5093 15.8595 31.2299 22.0076C30.9504 28.1558 30.7059 36.0506 30.4963 45.692C30.2168 56.5212 30.0072 66.3373 29.8675 75.1403C29.7278 83.9434 29.6579 92.6765 29.6579 101.34C29.6579 109.235 29.8675 115.068 30.2867 118.841C30.7059 122.614 31.4045 124.989 32.3826 125.967C33.5704 126.876 35.5266 127.539 38.2513 127.959C41.046 128.378 46.9496 128.587 55.9622 128.587C65.8831 128.587 74.1622 127.784 80.7994 126.177C87.5065 124.57 92.5368 122.858 95.8904 121.042C100.362 118.317 103.436 113.671 105.113 107.104L108.571 107.523C108.152 110.387 107.209 114.684 105.741 120.413C104.274 126.142 102.563 131.347 100.606 136.028C94.5978 135.329 89.8121 134.98 86.2489 134.98C84.0831 134.91 82.057 134.84 80.1706 134.77C78.3541 134.77 76.2232 134.77 73.7779 134.77H0.209596L0 131.522C4.12206 130.683 7.12628 129.775 9.01265 128.797C10.899 127.819 12.2963 126.142 13.2046 123.767C14.1827 121.321 14.7765 117.688 14.9861 112.868C15.2656 108.047 15.4053 101.095 15.4053 92.0128L15.6149 45.9016C15.7547 35.4917 15.7547 27.5969 15.6149 22.2172C15.4752 16.8376 14.9861 12.8552 14.1478 10.2702C13.3094 7.61534 11.9819 5.90363 10.1654 5.13511C8.34892 4.29673 5.44951 3.80767 1.46717 3.66794Z" fill="white"></path>
<defs>
<linearGradient id="paint0_linear_2411_3" x1="268.464" y1="114.518" x2="201.59" y2="114.518" gradientUnits="userSpaceOnUse">
<stop stop-color="#C8A84B"></stop>
<stop offset="1" stop-color="#625225" stop-opacity="0"></stop>
</linearGradient>
</defs>
</svg>